<svg width="100" height="30" viewBox="0 0 100 30" fill="none" xmlns="http://www.w3.org/2000/svg">
<g opacity="0.25" clip-path="url(#clip0)">
<path d="M14.9993 0.0494385C6.74055 0.0494385 0.0451889 6.74462 0.0451889 15.0034C0.0451889 23.2625 6.74055 29.9571 14.9993 29.9571C23.2589 29.9571 29.9536 23.2625 29.9536 15.0034C29.9536 6.74515 23.2589 0.0501528 14.9991 0.0501528L14.9993 0.0494385ZM21.8572 21.6173C21.5893 22.0566 21.0143 22.1959 20.575 21.9262C17.0639 19.7816 12.6439 19.2959 7.43858 20.4852C6.93697 20.5994 6.43698 20.2852 6.32269 19.7834C6.20787 19.2816 6.5209 18.7816 7.02376 18.6673C12.7202 17.3659 17.6064 17.9262 21.5482 20.3352C21.9875 20.6048 22.1268 21.178 21.8572 21.6173ZM23.6875 17.5455C23.35 18.0941 22.6322 18.2673 22.0839 17.9298C18.0643 15.4591 11.937 14.7435 7.18251 16.1868C6.5659 16.373 5.91465 16.0255 5.72751 15.41C5.5418 14.7934 5.88947 14.1434 6.50501 13.9559C11.9359 12.308 18.6875 13.1062 23.3036 15.9428C23.8518 16.2803 24.025 16.9982 23.6875 17.5457V17.5455ZM23.8447 13.3055C19.025 10.4428 11.0732 10.1796 6.47162 11.5762C5.73269 11.8003 4.95126 11.3832 4.72733 10.6443C4.5034 9.90497 4.92019 9.12408 5.65965 8.89944C10.942 7.29587 19.7232 7.60569 25.2722 10.8998C25.9382 11.2943 26.1561 12.1527 25.7614 12.8164C25.3686 13.481 24.5079 13.7002 23.8454 13.3055H23.8447ZM40.7304 13.8541C38.1482 13.2384 37.6893 12.8062 37.6893 11.8982C37.6893 11.0403 38.4964 10.463 39.6982 10.463C40.8625 10.463 42.0161 10.9014 43.2268 11.8039C43.2625 11.8312 43.3089 11.8421 43.3536 11.835C43.4 11.8282 43.4393 11.8034 43.4661 11.766L44.7268 9.9889C44.7786 9.91569 44.7643 9.8148 44.6946 9.7589C43.2536 8.60301 41.6321 8.04105 39.7357 8.04105C36.9482 8.04105 35 9.71408 35 12.1078C35 14.6748 36.6804 15.5837 39.5839 16.2853C42.0536 16.8544 42.4714 17.3312 42.4714 18.1834C42.4714 19.128 41.6286 19.7155 40.2714 19.7155C38.7643 19.7155 37.5339 19.2066 36.1589 18.0173C36.125 17.9869 36.0786 17.9744 36.0357 17.9762C35.9893 17.9798 35.9482 18.0012 35.9196 18.0352L34.5054 19.7173C34.4464 19.7887 34.4536 19.8923 34.5214 19.953C36.1214 21.3816 38.0893 22.1352 40.2143 22.1352C43.2179 22.1352 45.1589 20.4941 45.1589 17.953C45.1643 15.8089 43.8804 14.6214 40.7357 13.8564L40.7304 13.8541ZM51.9554 11.3077C50.6536 11.3077 49.5857 11.8205 48.7036 12.8714V11.6885C48.7036 11.5952 48.6286 11.5191 48.5357 11.5191H46.2232C46.1304 11.5191 46.0554 11.5952 46.0554 11.6885V24.8316C46.0554 24.9244 46.1304 25.0012 46.2232 25.0012H48.5357C48.6286 25.0012 48.7036 24.9244 48.7036 24.8316V20.6834C49.5857 21.6709 50.6536 22.1548 51.9554 22.1548C54.375 22.1548 56.825 20.2923 56.825 16.7318C56.8286 13.1705 54.3786 11.3075 51.9571 11.3075L51.9554 11.3077ZM54.1357 16.7318C54.1357 18.5441 53.0197 19.8102 51.4197 19.8102C49.8393 19.8102 48.6464 18.4869 48.6464 16.7318C48.6464 14.9764 49.8393 13.6535 51.4197 13.6535C52.9929 13.6534 54.1357 14.9477 54.1357 16.7316V16.7318ZM63.1018 11.3077C59.9857 11.3077 57.5447 13.7069 57.5447 16.7705C57.5447 19.8012 59.9697 22.1744 63.0643 22.1744C66.1911 22.1744 68.6393 19.7834 68.6393 16.7318C68.6393 13.6905 66.2072 11.308 63.1018 11.308V11.3077ZM63.1018 19.828C61.4446 19.828 60.1946 18.4959 60.1946 16.7309C60.1946 14.9578 61.4018 13.6712 63.0643 13.6712C64.7322 13.6712 65.9893 15.0028 65.9893 16.7696C65.9893 18.5423 64.775 19.828 63.1018 19.828ZM75.2929 11.5191H72.7482V8.91801C72.7482 8.8248 72.6732 8.74872 72.5804 8.74872H70.2679C70.175 8.74872 70.0982 8.8248 70.0982 8.91801V11.5191H68.9875C68.8946 11.5191 68.8197 11.5952 68.8197 11.6885V13.6755C68.8197 13.7687 68.8946 13.845 68.9875 13.845H70.0982V18.9869C70.0982 21.0637 71.1321 22.1173 73.1732 22.1173C74.0018 22.1173 74.6893 21.9459 75.3375 21.578C75.3911 21.5494 75.4232 21.4923 75.4232 21.4316V19.5387C75.4232 19.4816 75.3929 19.4262 75.3429 19.3959C75.2929 19.3637 75.2304 19.3619 75.1786 19.3887C74.7339 19.6119 74.3036 19.7155 73.8214 19.7155C73.0804 19.7155 72.7482 19.378 72.7482 18.6244V13.8459H75.2929C75.3857 13.8459 75.4607 13.7698 75.4607 13.6764V11.6896C75.4643 11.5962 75.3893 11.5202 75.2946 11.5202L75.2929 11.5191ZM84.1572 11.5293V11.2098C84.1572 10.27 84.5179 9.85087 85.325 9.85087C85.8072 9.85087 86.1946 9.94658 86.6286 10.0912C86.6822 10.108 86.7375 10.0996 86.7804 10.0677C86.825 10.0357 86.85 9.98444 86.85 9.93015V7.98194C86.85 7.90747 86.8036 7.84158 86.7304 7.81962C86.2732 7.68337 85.6875 7.54355 84.8089 7.54355C82.675 7.54355 81.5446 8.74605 81.5446 11.0198V11.5091H80.4339C80.3411 11.5091 80.2643 11.5852 80.2643 11.6784V13.6755C80.2643 13.7687 80.3411 13.845 80.4339 13.845H81.5446V21.7744C81.5446 21.8691 81.6214 21.9441 81.7143 21.9441H84.025C84.1197 21.9441 84.1946 21.8691 84.1946 21.7744V13.8455H86.3536L89.6607 21.7744C89.2857 22.6066 88.9161 22.7727 88.4125 22.7727C88.0054 22.7727 87.575 22.6512 87.1375 22.4102C87.0964 22.3887 87.0464 22.3852 87.0036 22.3977C86.9589 22.4137 86.9214 22.4459 86.9036 22.4887L86.1196 24.2084C86.0821 24.2905 86.1143 24.3852 86.1929 24.428C87.0107 24.8709 87.7482 25.0602 88.6607 25.0602C90.3679 25.0602 91.3125 24.2637 92.1429 22.1244L96.1536 11.7607C96.175 11.7085 96.1679 11.6496 96.1357 11.6034C96.1054 11.5575 96.0536 11.5298 95.9982 11.5298H93.5911C93.5179 11.5298 93.4536 11.5757 93.4304 11.6434L90.9643 18.6852L88.2643 11.6387C88.2393 11.5732 88.1768 11.5298 88.1071 11.5298H84.1572V11.5293ZM79.0179 11.5191H76.7054C76.6125 11.5191 76.5357 11.5952 76.5357 11.6885V21.7744C76.5357 21.8691 76.6125 21.9441 76.7054 21.9441H79.0179C79.1107 21.9441 79.1875 21.8691 79.1875 21.7744V11.6893C79.1875 11.5959 79.1125 11.5198 79.0179 11.5198V11.5191ZM77.875 6.9264C76.9589 6.9264 76.2161 7.66783 76.2161 8.58372C76.2161 9.50015 76.9589 10.2425 77.875 10.2425C78.7911 10.2425 79.5322 9.50015 79.5322 8.58372C79.5322 7.66801 78.7893 6.9264 77.875 6.9264ZM98.1286 14.7621C97.2143 14.7621 96.5018 14.0273 96.5018 13.135C96.5018 12.2427 97.2232 11.4994 98.1375 11.4994C99.0518 11.4994 99.7643 12.2341 99.7643 13.1257C99.7643 14.018 99.0429 14.7621 98.1286 14.7621ZM98.1375 11.6612C97.3036 11.6612 96.6732 12.3237 96.6732 13.135C96.6732 13.9459 97.3 14.5994 98.1286 14.5994C98.9625 14.5994 99.5929 13.9375 99.5929 13.1257C99.5929 12.3148 98.9661 11.6612 98.1375 11.6612ZM98.4982 13.293L98.9589 13.9373H98.5696L98.1554 13.3462H97.8V13.9373H97.475V12.2294H98.2357C98.6339 12.2294 98.8946 12.4325 98.8946 12.7743C98.8964 13.0543 98.7339 13.2253 98.5 13.293H98.4982ZM98.2232 12.5225H97.8V13.0627H98.2232C98.4339 13.0627 98.5607 12.9593 98.5607 12.7923C98.5607 12.6166 98.4339 12.5225 98.2232 12.5225Z" fill="black"/>
</g>
<defs>
<clipPath id="clip0">
<rect width="99.8214" height="30" fill="white"/>
</clipPath>
</defs>
</svg>
