<svg width="105" height="30" viewBox="0 0 105 30" fill="none" xmlns="http://www.w3.org/2000/svg">
<g opacity="0.25">
<path d="M23.58 14.1465C23.4765 16.4175 21.8895 19.5285 18.822 23.4765C15.651 27.6 12.9675 29.6625 10.7715 29.6625C9.41251 29.6625 8.26201 28.407 7.32151 25.8945C6.69451 23.592 6.06601 21.291 5.43901 18.9885C4.74151 16.4775 3.99301 15.2205 3.19201 15.2205C3.01801 15.2205 2.40601 15.588 1.36051 16.32L0.264008 14.9055C1.41451 13.8945 2.55001 12.882 3.66751 11.868C5.20351 10.542 6.35551 9.84299 7.12501 9.77249C8.94001 9.59849 10.0575 10.8405 10.4775 13.497C10.9305 16.365 11.244 18.1485 11.4195 18.846C11.943 21.225 12.519 22.413 13.1475 22.413C13.6365 22.413 14.37 21.6405 15.348 20.0985C16.3245 18.555 16.848 17.3805 16.9185 16.575C17.058 15.243 16.5345 14.5755 15.348 14.5755C14.7885 14.5755 14.2125 14.703 13.6215 14.958C14.7675 11.202 16.9575 9.3765 20.1915 9.47999C22.5885 9.55049 23.718 11.106 23.58 14.1465Z" fill="black"/>
<path d="M33.4215 2.87698C33.387 3.74698 32.9505 4.58098 32.1105 5.38048C31.1685 6.28348 30.051 6.73498 28.7595 6.73498C26.769 6.73498 25.8075 5.86648 25.878 4.12948C25.911 3.22648 26.445 2.35648 27.474 1.52248C28.5045 0.689984 29.6475 0.271484 30.906 0.271484C31.6395 0.271484 32.25 0.559484 32.7405 1.13248C33.228 1.70548 33.456 2.28748 33.4215 2.87698ZM37.9785 21.5055C37.0005 23.3535 35.6565 25.029 33.945 26.529C31.605 28.5525 29.2665 29.565 26.9265 29.565C25.842 29.565 25.014 29.2155 24.438 28.5165C23.862 27.819 23.5905 26.913 23.6265 25.7955C23.6595 24.645 24.018 22.8645 24.699 20.4555C25.38 18.048 25.722 16.7565 25.722 16.5825C25.722 15.675 25.407 15.2205 24.7785 15.2205C24.57 15.2205 23.9745 15.588 22.9965 16.32L21.792 14.9055C22.9095 13.8945 24.027 12.882 25.1445 11.868C26.646 10.542 27.7635 9.84298 28.4985 9.77248C29.6505 9.66898 30.4965 10.008 31.038 10.791C31.578 11.5755 31.779 12.591 31.641 13.8435C31.1865 15.966 30.6975 18.6615 30.174 21.9315C30.138 23.4285 30.6795 24.1755 31.797 24.1755C32.286 24.1755 33.159 23.6595 34.416 22.626C35.4645 21.765 36.3195 20.955 36.984 20.196L37.9785 21.5055Z" fill="black"/>
<path d="M70.6905 21.504C69.7125 23.3535 68.3685 25.0275 66.657 26.5275C64.317 28.551 61.977 29.5635 59.6385 29.5635C57.3675 29.5635 56.268 28.308 56.3385 25.794C56.3715 24.6765 56.5905 23.3355 56.9925 21.765C57.393 20.193 57.612 18.972 57.6465 18.099C57.6825 16.7745 57.279 16.11 56.4375 16.11C55.527 16.11 54.441 17.193 53.1795 19.3575C51.849 21.6285 51.129 23.8275 51.0255 25.9575C50.9505 27.4605 51.1005 28.6125 51.465 29.415C49.029 29.4855 47.322 29.0835 46.3485 28.2105C45.4755 27.4425 45.0765 26.169 45.147 24.387C45.177 23.2695 45.351 22.152 45.6615 21.0345C45.969 19.917 46.14 18.9225 46.1745 18.048C46.2495 16.7565 45.7725 16.11 44.7585 16.11C43.884 16.11 42.939 17.106 41.9265 19.0965C40.9125 21.0855 40.353 23.1645 40.248 25.329C40.173 27.2865 40.308 28.647 40.623 29.415C38.226 29.4855 36.5235 28.98 35.517 27.9C34.68 26.9955 34.299 25.62 34.3695 23.7735C34.3995 22.869 34.563 21.606 34.851 19.9875C35.139 18.3675 35.2995 17.106 35.3325 16.2C35.4075 15.5745 35.2425 15.2595 34.8615 15.2595C34.6515 15.2595 34.0575 15.6135 33.0795 16.32L31.8225 14.9055C31.998 14.7675 33.096 13.7535 35.1225 11.868C36.5895 10.5075 37.584 9.80849 38.1075 9.77399C39.0165 9.70349 39.7485 10.0785 40.308 10.899C40.866 11.7195 41.1465 12.672 41.1465 13.7535C41.1465 14.103 41.1165 14.4345 41.0415 14.7495C41.565 13.947 42.1755 13.2465 42.8745 12.6525C44.481 11.2575 46.2795 10.47 48.27 10.296C49.9815 10.1565 51.2025 10.557 51.9375 11.5005C52.53 12.2685 52.809 13.3695 52.7745 14.8005C53.019 14.592 53.2815 14.364 53.562 14.1195C54.363 13.1775 55.149 12.4275 55.917 11.868C57.2085 10.9245 58.5555 10.401 59.9505 10.296C61.6275 10.1565 62.832 10.5555 63.5655 11.496C64.1925 12.261 64.473 13.3575 64.404 14.7825C64.368 15.7575 64.1325 17.175 63.696 19.0365C63.258 20.898 63.042 21.966 63.042 22.245C63.006 22.977 63.0765 23.481 63.2505 23.7585C63.426 24.0375 63.843 24.1755 64.5075 24.1755C64.9965 24.1755 65.868 23.6595 67.1265 22.6245C68.1735 21.765 69.03 20.955 69.6945 20.196L70.6905 21.504Z" fill="black"/>
<path d="M78.4425 15.981C78.4755 15.0435 78.093 14.574 77.292 14.574C76.245 14.574 75.1815 15.2955 74.1015 16.737C73.02 18.1785 72.462 19.56 72.4275 20.88C72.408 20.88 72.408 21.1065 72.4275 21.558C74.136 20.9325 75.618 19.9785 76.8735 18.6915C77.8845 17.58 78.4065 16.6755 78.4425 15.981ZM90.333 21.45C89.3205 23.1255 87.33 24.798 84.3615 26.472C80.661 28.599 76.905 29.661 73.0995 29.661C70.272 29.661 68.244 28.719 67.023 26.8335C66.15 25.542 65.7315 24.006 65.766 22.2255C65.8005 19.398 67.059 16.71 69.5385 14.16C72.261 11.367 75.474 9.96899 79.176 9.96899C82.599 9.96899 84.414 11.364 84.624 14.1495C84.7635 15.9255 83.7855 17.7555 81.69 19.6365C79.455 21.693 76.6425 22.998 73.257 23.5545C73.884 24.426 74.826 24.861 76.0845 24.861C78.5985 24.861 81.3405 24.222 84.309 22.9425C86.439 22.044 88.116 21.111 89.3385 20.1435L90.333 21.45Z" fill="black"/>
<path d="M98.6325 17.742C98.667 16.797 98.5365 15.9315 98.2395 15.144C97.9425 14.358 97.5135 13.962 96.957 13.962C95.175 13.962 93.708 14.925 92.5575 16.8495C91.578 18.4245 91.053 20.1045 90.9855 21.8865C90.9495 22.7625 91.107 23.5335 91.4565 24.1965C91.839 24.9675 92.3805 25.3515 93.081 25.3515C94.6515 25.3515 95.997 24.426 97.1145 22.5705C98.0565 21.03 98.562 19.4205 98.6325 17.742ZM104.551 17.94C104.412 21.1485 103.226 23.9205 100.991 26.256C98.7555 28.5915 95.9775 29.76 92.661 29.76C89.9025 29.76 87.807 28.8705 86.376 27.0915C85.329 25.767 84.7515 24.111 84.648 22.125C84.471 19.125 85.554 16.371 87.8955 13.86C90.4095 11.0715 93.5685 9.67651 97.3755 9.67651C99.819 9.67651 101.67 10.497 102.929 12.135C104.117 13.635 104.656 15.57 104.551 17.94Z" fill="black"/>
</g>
</svg>
