<svg width="153" height="30" viewBox="0 0 153 30" fill="none" xmlns="http://www.w3.org/2000/svg">
<g opacity="0.25" clip-path="url(#clip0)">
<path d="M17.6739 5.63738L8.83697 11.2748L17.6739 16.9121L8.83697 22.5495L0 16.8817L8.83697 11.2443L0 5.63738L8.83697 0L17.6739 5.63738ZM8.79127 24.3626L17.6282 18.7252L26.4652 24.3626L17.6282 30L8.79127 24.3626ZM17.6739 16.8817L26.5109 11.2443L17.6739 5.63738L26.4652 0L35.3022 5.63738L26.4652 11.2748L35.3022 16.9121L26.4652 22.5495L17.6739 16.8817Z" fill="black"/>
<path d="M42.2346 5.63731H49.3804C53.936 5.63731 57.6993 8.27317 57.6993 14.2915V15.5561C57.6993 21.62 54.1798 24.3473 49.5175 24.3473H42.2346V5.63731ZM46.2265 9.03497V20.9344H49.289C51.8791 20.9344 53.616 19.2432 53.616 15.4799V14.4895C53.616 10.7262 51.7877 9.03497 49.1518 9.03497H46.2265ZM59.8171 9.21781H63.0167L63.5348 12.7374C64.1442 10.3453 65.6983 9.06545 68.517 9.06545H69.5073V13.103H67.8618C64.6165 13.103 63.8243 14.2305 63.8243 17.4301V24.393H59.8781V9.21781H59.8171ZM70.2996 17.1101V16.6835C70.2996 11.6099 73.5449 8.8369 77.9634 8.8369C82.4733 8.8369 85.6272 11.6099 85.6272 16.6835V17.1101C85.6272 22.0924 82.5647 24.7739 77.9634 24.7739C73.0726 24.7282 70.2996 22.1076 70.2996 17.1101ZM81.5896 17.0644V16.6835C81.5896 13.8648 80.1727 12.1736 77.9177 12.1736C75.7085 12.1736 74.2458 13.7277 74.2458 16.6835V17.0644C74.2458 19.7917 75.6628 21.3458 77.9177 21.3458C80.1727 21.3001 81.5896 19.7917 81.5896 17.0644ZM87.6993 9.21781H90.9903L91.3712 12.0822C92.1635 10.1624 93.8547 8.8369 96.3535 8.8369C100.208 8.8369 102.753 11.6099 102.753 16.7445V17.1711C102.753 22.1533 99.934 24.7892 96.3535 24.7892C93.9614 24.7892 92.3159 23.7074 91.5084 21.9705V29.6343H87.6536L87.6993 9.21781ZM98.7455 17.0644V16.7292C98.7455 13.7125 97.1914 12.2193 95.1193 12.2193C92.9101 12.2193 91.4474 13.9105 91.4474 16.7292V17.0187C91.4474 19.7003 92.8644 21.3915 95.0736 21.3915C97.3438 21.3458 98.7455 19.8984 98.7455 17.0644ZM108.588 21.5896L108.253 24.3626H104.87V4.14417H108.725V11.8994C109.578 9.91867 111.27 8.8369 113.662 8.8369C117.288 8.88261 119.97 11.3813 119.97 16.4093V16.8816C119.97 21.9095 117.425 24.7892 113.57 24.7892C111.026 24.7282 109.38 23.555 108.588 21.5896ZM115.917 16.8816V16.5007C115.917 13.7277 114.408 12.1736 112.29 12.1736C110.127 12.1736 108.619 13.9105 108.619 16.5464V16.8816C108.619 19.7003 110.081 21.3458 112.245 21.3458C114.561 21.3458 115.917 19.8984 115.917 16.8816ZM121.661 17.1101V16.6835C121.661 11.6099 124.906 8.8369 129.325 8.8369C133.834 8.8369 136.988 11.6099 136.988 16.6835V17.1101C136.988 22.0924 133.88 24.7739 129.325 24.7739C124.434 24.7282 121.661 22.1076 121.661 17.1101ZM132.981 17.0644V16.6835C132.981 13.8648 131.564 12.1736 129.309 12.1736C127.1 12.1736 125.637 13.7277 125.637 16.6835V17.0644C125.637 19.7917 127.054 21.3458 129.309 21.3458C131.579 21.3001 132.981 19.7917 132.981 17.0644ZM142.153 16.5007L136.836 9.21781H141.392L144.454 13.7734L147.562 9.21781H152.072L146.678 16.455L152.362 24.3626H147.897L144.424 19.3346L141.041 24.3626H136.379L142.153 16.5007Z" fill="black"/>
</g>
<defs>
<clipPath id="clip0">
<rect width="152.362" height="30" fill="white"/>
</clipPath>
</defs>
</svg>
