<svg width="106" height="30" viewBox="0 0 106 30" fill="none" xmlns="http://www.w3.org/2000/svg">
<g opacity="0.25" clip-path="url(#clip0)">
<path d="M22.8078 5.682C22.7873 5.53298 22.6571 5.45031 22.5491 5.44131C22.4419 5.43231 20.3412 5.40039 20.3412 5.40039C20.3412 5.40039 18.5843 3.6943 18.4108 3.52075C18.2372 3.34719 17.8983 3.39959 17.7665 3.43888C17.7649 3.4397 17.4366 3.54121 16.884 3.71231C16.7915 3.41269 16.6556 3.04429 16.4615 2.67425C15.8361 1.48065 14.92 0.849467 13.8132 0.847834C13.8116 0.847834 13.8107 0.847834 13.8091 0.847834C13.7321 0.847834 13.656 0.855202 13.5791 0.861748C13.5463 0.822452 13.5136 0.783979 13.4792 0.746316C12.997 0.230565 12.3789 -0.020763 11.638 0.00134071C10.2087 0.0422736 8.78503 1.0746 7.63072 2.90839C6.81861 4.19859 6.20051 5.81956 6.02533 7.07454C4.38391 7.58292 3.23615 7.9382 3.21077 7.94641C2.38229 8.20672 2.3561 8.2321 2.24803 9.01313C2.1678 9.60334 0 26.3662 0 26.3662L18.1668 29.5082L26.0406 27.5508C26.0406 27.5508 22.8282 5.83102 22.8078 5.682ZM15.9745 3.99393C15.5561 4.12328 15.0805 4.27064 14.5647 4.43028C14.5541 3.70658 14.4681 2.69964 14.1308 1.8294C15.2156 2.03489 15.7493 3.26205 15.9745 3.99393ZM13.6142 4.72499C12.6622 5.01969 11.6233 5.34143 10.5811 5.664C10.8742 4.54161 11.4301 3.42415 12.1129 2.69145C12.3666 2.41884 12.7219 2.11511 13.1427 1.94156C13.5381 2.76676 13.6241 3.93499 13.6142 4.72499ZM11.6667 0.952618C12.0023 0.945251 12.2848 1.01893 12.5263 1.17775C12.1399 1.37832 11.7665 1.66649 11.4162 2.04225C10.5083 3.01646 9.81241 4.52851 9.53488 5.98736C8.66956 6.25505 7.82307 6.51787 7.0437 6.75856C7.53575 4.4622 9.46038 1.01647 11.6667 0.952618Z" fill="black"/>
<path d="M22.5499 5.44214C22.4427 5.43314 20.342 5.40123 20.342 5.40123C20.342 5.40123 18.5851 3.69513 18.4116 3.52158C18.3469 3.4569 18.2593 3.42334 18.1676 3.40942L18.1684 29.5074L26.0415 27.5508C26.0415 27.5508 22.8291 5.83185 22.8086 5.68283C22.7881 5.53382 22.6571 5.45114 22.5499 5.44214Z" fill="black"/>
<path d="M13.8033 9.49045L12.8889 12.9116C12.8889 12.9116 11.8689 12.4474 10.6597 12.5236C8.88649 12.6357 8.86765 13.754 8.8857 14.0348C8.98229 15.5649 13.0076 15.8989 13.2336 19.483C13.4112 22.3024 11.7379 24.2312 9.32694 24.3834C6.43298 24.566 4.83987 22.8591 4.83987 22.8591L5.45306 20.2509C5.45306 20.2509 7.05678 21.4608 8.34044 21.3798C9.17876 21.3266 9.47837 20.6446 9.44807 20.1624C9.32203 18.1665 6.04411 18.2844 5.83701 15.0049C5.66262 12.2452 7.47516 9.4487 11.4743 9.19655C13.015 9.0975 13.8033 9.49045 13.8033 9.49045Z" fill="white"/>
<path d="M36.4093 16.6543C35.5039 16.163 35.0386 15.7489 35.0386 15.1797C35.0386 14.4554 35.6849 13.9901 36.6943 13.9901C37.8692 13.9901 38.9183 14.4814 38.9183 14.4814L39.7457 11.9464C39.7457 11.9464 38.9848 11.3512 36.7454 11.3512C33.629 11.3512 31.4692 13.1359 31.4692 15.6449C31.4692 17.0675 32.4777 18.154 33.8231 18.9294C34.9095 19.5498 35.2976 19.9899 35.2976 20.6362C35.2976 21.3085 34.7545 21.8517 33.746 21.8517C32.243 21.8517 30.8236 21.0755 30.8236 21.0755L29.9443 23.6105C29.9443 23.6105 31.2556 24.4899 33.4618 24.4899C36.6691 24.4899 38.9711 22.9122 38.9711 20.067C38.9702 18.5421 37.8067 17.4557 36.4093 16.6543Z" fill="black"/>
<path d="M49.1867 11.326C47.6089 11.326 46.3674 12.0763 45.4109 13.2139L45.3589 13.1879L46.7295 6.0238H43.1601L39.6945 24.2577H43.264L44.4536 18.0249C44.9188 15.671 46.1343 14.2232 47.2728 14.2232C48.0742 14.2232 48.3852 14.7664 48.3852 15.5427C48.3852 16.0339 48.3332 16.6291 48.2301 17.1204L46.8854 24.2585H50.4551L51.8513 16.8873C52.0067 16.111 52.1105 15.1805 52.1105 14.5593C52.109 12.5416 51.0487 11.326 49.1867 11.326Z" fill="black"/>
<path d="M60.1785 11.326C55.8846 11.326 53.0405 15.2057 53.0405 19.5247C53.0405 22.2919 54.747 24.5159 57.9546 24.5159C62.1703 24.5159 65.0154 20.7402 65.0154 16.3173C65.0154 13.7571 63.5149 11.326 60.1785 11.326ZM58.4198 21.7754C57.2041 21.7754 56.6867 20.741 56.6867 19.4475C56.6867 17.4045 57.7475 14.0681 59.6872 14.0681C60.9546 14.0681 61.3677 15.1545 61.3677 16.215C61.3677 18.413 60.3084 21.7754 58.4198 21.7754Z" fill="black"/>
<path d="M74.1452 11.326C71.7359 11.326 70.3687 13.447 70.3687 13.447H70.3175L70.5246 11.5331H67.3692C67.2143 12.8266 66.929 14.7916 66.6452 16.2662L64.1621 29.3269H67.7316L68.7138 24.0506H68.792C68.792 24.0506 69.5243 24.5159 70.887 24.5159C75.0767 24.5159 77.818 20.223 77.818 15.8772C77.818 13.473 76.7572 11.326 74.1452 11.326ZM70.7311 21.8266C69.8046 21.8266 69.2562 21.3094 69.2562 21.3094L69.8513 17.973C70.2654 15.7489 71.429 14.2744 72.6708 14.2744C73.7572 14.2744 74.0931 15.2829 74.0931 16.2402C74.0931 18.5421 72.7225 21.8266 70.7311 21.8266Z" fill="black"/>
<path d="M82.9131 6.20496C81.7756 6.20496 80.8702 7.11032 80.8702 8.27387C80.8702 9.33435 81.5425 10.0586 82.5511 10.0586H82.6028C83.7152 10.0586 84.6718 9.30833 84.6979 7.98971C84.6979 6.9552 83.9995 6.20496 82.9131 6.20496Z" fill="black"/>
<path d="M77.9218 24.2576H81.4903L83.9223 11.611H80.3267L77.9218 24.2576Z" fill="black"/>
<path d="M93.0005 11.5851H90.5174L90.6462 10.9899C90.8533 9.77436 91.5777 8.68792 92.7674 8.68792C93.4023 8.68792 93.9049 8.869 93.9049 8.869L94.6033 6.07581C94.6033 6.07581 93.9826 5.76562 92.6631 5.76562C91.3957 5.76562 90.1293 6.12774 89.1718 6.95515C87.9561 7.98966 87.387 9.48936 87.1028 10.9899L87 11.5851H85.3441L84.8267 14.2752H86.4826L84.5946 24.2585H88.1641L90.0521 14.2752H92.5092L93.0005 11.5851Z" fill="black"/>
<path d="M101.587 11.6111C101.587 11.6111 99.3556 17.2324 98.3538 20.3009H98.3016C98.2338 19.3127 97.4223 11.6111 97.4223 11.6111H93.6718L95.8195 23.2232C95.8716 23.4814 95.8456 23.6373 95.7418 23.8184C95.3272 24.6198 94.6293 25.3961 93.8016 25.9653C93.1293 26.4565 92.3793 26.7667 91.7848 26.9737L92.7674 30C93.4918 29.8449 94.9913 29.2497 96.2587 28.0602C97.8885 26.5344 99.388 24.1805 100.94 20.9732L105.311 11.6102H101.587V11.6111Z" fill="black"/>
</g>
<defs>
<clipPath id="clip0">
<rect width="105.738" height="30" fill="white"/>
</clipPath>
</defs>
</svg>
