<svg width="100" height="31" viewBox="0 0 100 31" fill="none" xmlns="http://www.w3.org/2000/svg">
<g opacity="0.25" clip-path="url(#clip0)">
<path d="M0.0499878 21.5012V0.494385H3.74008V21.5012H0.0499878Z" fill="black"/>
<path d="M13.1859 6.26147C8.45471 6.26147 5.18066 9.89915 5.18066 14.0628C5.18066 18.7097 8.74245 21.911 13.2227 21.911C17.4747 21.911 21.1644 18.7686 21.1644 14.0528C21.1644 10.0872 18.1069 6.26147 13.1859 6.26147ZM13.1424 9.82122C15.6184 9.82122 17.4409 11.7485 17.4409 14.0762C17.4409 16.5442 15.4316 18.3445 13.2093 18.3445C10.5834 18.3445 8.93093 16.2633 8.93093 14.0829C8.93093 11.6929 10.7966 9.82122 13.1424 9.82122Z" fill="black"/>
<path d="M30.4358 6.26147C25.7046 6.26147 22.4306 9.89915 22.4306 14.0628C22.4306 18.7097 25.9924 21.911 30.4726 21.911C34.7246 21.911 38.4143 18.7686 38.4143 14.0528C38.4143 11.2757 37.2117 10.0436 37.2117 10.0436L38.2345 9.69282V6.69796H32.9935C32.9935 6.69796 31.8573 6.26147 30.4358 6.26147ZM30.3924 9.82122C32.8683 9.82122 34.6908 11.7485 34.6908 14.0762C34.6908 16.5442 32.6815 18.3445 30.4592 18.3445C27.8334 18.3445 26.1809 16.2633 26.1809 14.0829C26.1809 11.6929 28.0466 9.82122 30.3924 9.82122Z" fill="black"/>
<path d="M34.6647 22.528C34.6647 24.9959 32.6554 26.8097 30.4331 26.8097C27.8073 26.8097 26.1481 24.7084 26.1481 22.528H22.4045C22.4045 27.1749 25.9663 30.3761 30.4465 30.3761C34.6985 30.3761 38.3882 27.2438 38.3882 22.528H34.6647Z" fill="black"/>
<path d="M39.8923 21.5012V6.698H43.5824V21.5012H39.8923Z" fill="black"/>
<path d="M47.1656 21.5012V10.0137H45.1868V6.69799H47.1656V2.15222H50.8557V6.69799H52.8879V10.0137H50.8557V21.5012H47.1656Z" fill="black"/>
<path d="M44.1733 2.49362C44.1733 3.84317 43.0793 4.93719 41.7297 4.93719C40.3802 4.93719 39.2861 3.84317 39.2861 2.49362C39.2861 1.14407 40.3802 0.0500488 41.7297 0.0500488C43.0793 0.0500488 44.1733 1.14407 44.1733 2.49362Z" fill="black"/>
<path d="M61.1839 6.25146C56.4303 6.25146 53.3658 9.89104 53.3658 14.1965C53.3658 18.6458 56.4405 21.921 61.2608 21.921C65.7573 21.921 67.9691 19.1133 67.9691 19.1133L65.5024 16.6432C65.5024 16.6432 63.6399 18.6521 61.3076 18.6521C59.3633 18.6521 57.8089 17.5669 57.2665 15.577H68.7646V14.5609C68.7646 10.5064 66.4179 6.25146 61.1839 6.25146ZM61.0669 9.50035C62.7668 9.50035 64.5053 10.4098 64.8941 12.5821H57.1662C57.4723 11.0551 58.8082 9.50035 61.0669 9.50035Z" fill="black"/>
<path d="M77.9947 21.9229C73.2277 21.9229 69.9795 18.2922 69.9795 14.0113C69.9795 9.59338 73.6505 6.24866 77.9794 6.24866C82.1642 6.24866 84.3063 9.20287 84.3063 9.20287L81.7321 11.7654C81.7321 11.7654 80.241 9.83877 77.9619 9.83877C75.436 9.83877 73.7088 11.7711 73.7088 14.0679C73.7088 16.4931 75.5461 18.3538 77.9335 18.3538C80.2493 18.3538 81.7285 16.4303 81.7285 16.4303L84.3284 18.9915C84.3284 18.9915 82.2072 21.9229 77.9947 21.9229Z" fill="black"/>
<path d="M85.6709 21.5119V0.440918H89.361V8.1825C89.361 8.1825 90.7739 6.24873 93.8475 6.24873C97.7114 6.24873 99.95 9.12106 99.95 12.7947V21.5119H96.2599V13.3524C96.2599 10.8844 94.7233 9.86049 93.0211 9.86049C91.0817 9.86049 89.361 10.9642 89.361 13.5434V21.5119H85.6709Z" fill="black"/>
</g>
<defs>
<clipPath id="clip0">
<rect width="100" height="30.4261" fill="white"/>
</clipPath>
</defs>
</svg>
