<svg width="154" height="54" viewBox="0 0 154 54" fill="none" xmlns="http://www.w3.org/2000/svg">
<path d="M81.396 30.2178C81.396 29.36 81.0933 28.7041 80.4878 28.25C79.8823 27.7858 78.7925 27.3014 77.2183 26.7969C75.644 26.2822 74.3978 25.7777 73.4795 25.2832C70.9769 23.931 69.7256 22.1095 69.7256 19.8188C69.7256 18.6281 70.0586 17.5685 70.7246 16.6401C71.4007 15.7017 72.3644 14.9701 73.6157 14.4453C74.8771 13.9206 76.2899 13.6582 77.854 13.6582C79.4282 13.6582 80.8309 13.9458 82.062 14.521C83.2931 15.0861 84.2467 15.8883 84.9229 16.9277C85.609 17.9671 85.9521 19.1478 85.9521 20.4697H81.4111C81.4111 19.4606 81.0933 18.6785 80.4575 18.1235C79.8218 17.5584 78.9287 17.2759 77.7783 17.2759C76.6683 17.2759 75.8055 17.513 75.1899 17.9873C74.5744 18.4515 74.2666 19.0671 74.2666 19.834C74.2666 20.5505 74.6248 21.1509 75.3413 21.6353C76.0679 22.1196 77.1325 22.5737 78.5352 22.9976C81.1185 23.7746 83.0005 24.7383 84.1812 25.8887C85.3618 27.0391 85.9521 28.472 85.9521 30.1875C85.9521 32.0947 85.2306 33.5933 83.7876 34.6831C82.3446 35.7629 80.402 36.3027 77.96 36.3027C76.2646 36.3027 74.7207 35.995 73.3281 35.3794C71.9355 34.7537 70.8709 33.901 70.1343 32.8213C69.4077 31.7415 69.0444 30.4902 69.0444 29.0674H73.6006C73.6006 31.4993 75.0537 32.7153 77.96 32.7153C79.0397 32.7153 79.8823 32.4984 80.4878 32.0645C81.0933 31.6204 81.396 31.0049 81.396 30.2178Z" fill="#0284C7"/>
<path d="M96.2905 36.3027C93.8888 36.3027 91.9312 35.5661 90.4175 34.0928C88.9139 32.6195 88.1621 30.6567 88.1621 28.2046V27.7808C88.1621 26.1359 88.48 24.6676 89.1157 23.376C89.7515 22.0742 90.6496 21.0752 91.8101 20.3789C92.9806 19.6725 94.3127 19.3193 95.8062 19.3193C98.0464 19.3193 99.8073 20.0257 101.089 21.4385C102.381 22.8512 103.026 24.8543 103.026 27.4478V29.2339H92.5972C92.7384 30.3035 93.1623 31.1613 93.8687 31.8071C94.5851 32.453 95.4883 32.7759 96.5781 32.7759C98.2633 32.7759 99.5802 32.1654 100.529 30.9443L102.678 33.3511C102.022 34.2795 101.134 35.006 100.014 35.5308C98.894 36.0454 97.6528 36.3027 96.2905 36.3027ZM95.791 22.8613C94.9232 22.8613 94.2168 23.154 93.6719 23.7393C93.137 24.3245 92.7939 25.1621 92.6426 26.252H98.7275V25.9038C98.7074 24.9351 98.445 24.1883 97.9404 23.6636C97.4359 23.1287 96.7194 22.8613 95.791 22.8613Z" fill="#0284C7"/>
<path d="M109.55 19.6221L109.687 21.5142C110.857 20.0509 112.426 19.3193 114.394 19.3193C116.13 19.3193 117.421 19.8289 118.269 20.8481C119.117 21.8674 119.551 23.3911 119.571 25.4194V36H115.196V25.5254C115.196 24.597 114.994 23.9259 114.591 23.5122C114.187 23.0884 113.516 22.8765 112.578 22.8765C111.347 22.8765 110.423 23.4012 109.808 24.4507V36H105.433V19.6221H109.55Z" fill="#0284C7"/>
<path d="M131.771 31.4741C131.771 30.9393 131.504 30.5205 130.969 30.2178C130.444 29.9049 129.596 29.6274 128.426 29.3853C124.531 28.5679 122.583 26.9129 122.583 24.4204C122.583 22.9673 123.183 21.7563 124.384 20.7876C125.595 19.8088 127.174 19.3193 129.122 19.3193C131.201 19.3193 132.861 19.8088 134.102 20.7876C135.353 21.7664 135.979 23.0379 135.979 24.6021H131.604C131.604 23.9764 131.403 23.4618 130.999 23.0581C130.595 22.6444 129.965 22.4375 129.107 22.4375C128.37 22.4375 127.8 22.604 127.396 22.937C126.993 23.27 126.791 23.6938 126.791 24.2085C126.791 24.6929 127.018 25.0864 127.472 25.3892C127.936 25.6818 128.713 25.9391 129.803 26.1611C130.893 26.373 131.811 26.6152 132.558 26.8877C134.869 27.7354 136.024 29.2036 136.024 31.2925C136.024 32.786 135.384 33.9969 134.102 34.9253C132.82 35.8436 131.166 36.3027 129.137 36.3027C127.765 36.3027 126.544 36.0605 125.474 35.5762C124.415 35.0817 123.582 34.4106 122.977 33.563C122.371 32.7052 122.068 31.7819 122.068 30.793H126.216C126.256 31.57 126.544 32.1654 127.079 32.5791C127.613 32.9928 128.33 33.1997 129.228 33.1997C130.066 33.1997 130.696 33.0433 131.12 32.7305C131.554 32.4076 131.771 31.9888 131.771 31.4741Z" fill="#0284C7"/>
<path d="M146.393 36.3027C143.991 36.3027 142.034 35.5661 140.52 34.0928C139.016 32.6195 138.265 30.6567 138.265 28.2046V27.7808C138.265 26.1359 138.583 24.6676 139.218 23.376C139.854 22.0742 140.752 21.0752 141.913 20.3789C143.083 19.6725 144.415 19.3193 145.909 19.3193C148.149 19.3193 149.91 20.0257 151.191 21.4385C152.483 22.8512 153.129 24.8543 153.129 27.4478V29.2339H142.7C142.841 30.3035 143.265 31.1613 143.971 31.8071C144.688 32.453 145.591 32.7759 146.681 32.7759C148.366 32.7759 149.683 32.1654 150.631 30.9443L152.781 33.3511C152.125 34.2795 151.237 35.006 150.117 35.5308C148.997 36.0454 147.755 36.3027 146.393 36.3027ZM145.894 22.8613C145.026 22.8613 144.319 23.154 143.774 23.7393C143.24 24.3245 142.896 25.1621 142.745 26.252H148.83V25.9038C148.81 24.9351 148.548 24.1883 148.043 23.6636C147.538 23.1287 146.822 22.8613 145.894 22.8613Z" fill="#0284C7"/>
<path fill-rule="evenodd" clip-rule="evenodd" d="M7.82863 7.6174C3.505 8.52701 0.73739 12.7694 1.64701 17.093L7.6174 45.4718C8.52702 49.7954 12.7694 52.563 17.093 51.6534L45.4718 45.683C49.7954 44.7734 52.563 40.531 51.6534 36.2074L45.683 7.82862C44.7734 3.50499 40.531 0.737386 36.2074 1.647L7.82863 7.6174ZM29.8521 27.9688C30.4275 28.237 30.7892 28.7231 30.9373 29.4271C31.0732 30.0731 30.931 30.6306 30.5108 31.0995C30.0887 31.5602 29.4346 31.8838 28.5484 32.0702C26.1632 32.572 24.7606 31.8249 24.3406 29.8289L20.6012 30.6156C20.8469 31.7834 21.3611 32.7477 22.1439 33.5084C22.9349 34.2674 23.9559 34.7835 25.2069 35.0565C26.4561 35.3213 27.7765 35.3073 29.1679 35.0146C31.1722 34.5929 32.6733 33.8144 33.6712 32.679C34.6674 31.5353 35.0008 30.1809 34.6715 28.6155C34.3753 27.2075 33.6433 26.1334 32.4757 25.3931C31.308 24.6528 29.597 24.1868 27.3426 23.9951C26.1181 23.8895 25.166 23.7006 24.486 23.4285C23.8143 23.1547 23.4166 22.7237 23.2929 22.1357C23.1605 21.5062 23.3068 20.9479 23.7319 20.4606C24.1552 19.965 24.8224 19.6214 25.7334 19.4298C26.6776 19.2311 27.4594 19.3088 28.0787 19.6629C28.6963 20.0086 29.0923 20.5956 29.2665 21.4238L32.9935 20.6397C32.7653 19.5547 32.2798 18.645 31.5371 17.9104C30.8028 17.1741 29.8816 16.6803 28.7736 16.429C27.6638 16.1695 26.4629 16.1757 25.1709 16.4475C23.8871 16.7176 22.7729 17.1769 21.8283 17.8253C20.8919 18.4721 20.2272 19.239 19.8344 20.1259C19.4481 21.0029 19.3577 21.93 19.5633 22.9073C19.9588 24.7874 21.3003 26.0663 23.5878 26.744C24.4269 26.9913 25.5369 27.1902 26.9178 27.3408C28.2969 27.483 29.275 27.6924 29.8521 27.9688Z" fill="#0284C7"/>
</svg>
