<svg width="54" height="54" viewBox="0 0 54 54" fill="none" xmlns="http://www.w3.org/2000/svg">
<path fill-rule="evenodd" clip-rule="evenodd" d="M7.82863 7.61764C3.505 8.52726 0.73739 12.7696 1.64701 17.0933L7.6174 45.472C8.52702 49.7957 12.7694 52.5633 17.093 51.6537L45.4718 45.6833C49.7954 44.7736 52.563 40.5313 51.6534 36.2076L45.683 7.82887C44.7734 3.50524 40.531 0.73763 36.2074 1.64725L7.82863 7.61764ZM29.8521 27.9691C30.4275 28.2372 30.7892 28.7233 30.9373 29.4273C31.0732 30.0733 30.931 30.6308 30.5108 31.0998C30.0887 31.5605 29.4346 31.884 28.5484 32.0705C26.1632 32.5723 24.7606 31.8252 24.3406 29.8292L20.6012 30.6159C20.8469 31.7837 21.3611 32.7479 22.1439 33.5087C22.9349 34.2677 23.9559 34.7837 25.2069 35.0568C26.4561 35.3215 27.7765 35.3075 29.1679 35.0148C31.1722 34.5931 32.6733 33.8146 33.6712 32.6792C34.6674 31.5356 35.0008 30.1811 34.6715 28.6158C34.3753 27.2078 33.6433 26.1336 32.4757 25.3933C31.308 24.653 29.597 24.187 27.3426 23.9953C26.1181 23.8897 25.166 23.7008 24.486 23.4287C23.8143 23.1549 23.4166 22.724 23.2929 22.1359C23.1605 21.5065 23.3068 20.9481 23.7319 20.4608C24.1552 19.9653 24.8224 19.6217 25.7334 19.43C26.6776 19.2314 27.4594 19.3091 28.0787 19.6631C28.6963 20.0088 29.0923 20.5958 29.2665 21.4241L32.9935 20.64C32.7653 19.555 32.2798 18.6452 31.5371 17.9106C30.8028 17.1743 29.8816 16.6805 28.7736 16.4293C27.6638 16.1698 26.4629 16.1759 25.1709 16.4478C23.8871 16.7178 22.7729 17.1771 21.8283 17.8256C20.8919 18.4723 20.2272 19.2392 19.8344 20.1262C19.4481 21.0032 19.3577 21.9303 19.5633 22.9076C19.9588 24.7877 21.3003 26.0665 23.5878 26.7442C24.4269 26.9915 25.5369 27.1904 26.9178 27.341C28.2969 27.4833 29.275 27.6927 29.8521 27.9691Z" fill="#A4A4A4"/>
</svg>
