<svg width="275" height="245" viewBox="0 0 275 245" fill="none" xmlns="http://www.w3.org/2000/svg">
<g opacity="0.4">
<rect width="5" height="5" rx="2.5" fill="white"/>
<rect x="30" width="5" height="5" rx="2.5" fill="white"/>
<rect x="60" width="5" height="5" rx="2.5" fill="white"/>
<rect x="90" width="5" height="5" rx="2.5" fill="white"/>
<rect x="120" width="5" height="5" rx="2.5" fill="white"/>
<rect x="150" width="5" height="5" rx="2.5" fill="white"/>
<rect x="180" width="5" height="5" rx="2.5" fill="white"/>
<rect x="210" width="5" height="5" rx="2.5" fill="white"/>
<rect x="240" width="5" height="5" rx="2.5" fill="white"/>
<rect x="270" width="5" height="5" rx="2.5" fill="white"/>
<rect y="30" width="5" height="5" rx="2.5" fill="white"/>
<rect x="30" y="30" width="5" height="5" rx="2.5" fill="white"/>
<rect x="60" y="30" width="5" height="5" rx="2.5" fill="white"/>
<rect x="90" y="30" width="5" height="5" rx="2.5" fill="white"/>
<rect x="120" y="30" width="5" height="5" rx="2.5" fill="white"/>
<rect x="150" y="30" width="5" height="5" rx="2.5" fill="white"/>
<rect x="180" y="30" width="5" height="5" rx="2.5" fill="white"/>
<rect x="210" y="30" width="5" height="5" rx="2.5" fill="white"/>
<rect x="240" y="30" width="5" height="5" rx="2.5" fill="white"/>
<rect x="270" y="30" width="5" height="5" rx="2.5" fill="white"/>
<rect y="60" width="5" height="5" rx="2.5" fill="white"/>
<rect x="30" y="60" width="5" height="5" rx="2.5" fill="white"/>
<rect x="60" y="60" width="5" height="5" rx="2.5" fill="white"/>
<rect x="90" y="60" width="5" height="5" rx="2.5" fill="white"/>
<rect x="120" y="60" width="5" height="5" rx="2.5" fill="white"/>
<rect x="150" y="60" width="5" height="5" rx="2.5" fill="white"/>
<rect x="180" y="60" width="5" height="5" rx="2.5" fill="white"/>
<rect x="210" y="60" width="5" height="5" rx="2.5" fill="white"/>
<rect x="240" y="60" width="5" height="5" rx="2.5" fill="white"/>
<rect x="270" y="60" width="5" height="5" rx="2.5" fill="white"/>
<rect y="90" width="5" height="5" rx="2.5" fill="white"/>
<rect x="30" y="90" width="5" height="5" rx="2.5" fill="white"/>
<rect x="60" y="90" width="5" height="5" rx="2.5" fill="white"/>
<rect x="90" y="90" width="5" height="5" rx="2.5" fill="white"/>
<rect x="120" y="90" width="5" height="5" rx="2.5" fill="white"/>
<rect x="150" y="90" width="5" height="5" rx="2.5" fill="white"/>
<rect x="180" y="90" width="5" height="5" rx="2.5" fill="white"/>
<rect x="210" y="90" width="5" height="5" rx="2.5" fill="white"/>
<rect x="240" y="90" width="5" height="5" rx="2.5" fill="white"/>
<rect x="270" y="90" width="5" height="5" rx="2.5" fill="white"/>
<rect y="120" width="5" height="5" rx="2.5" fill="white"/>
<rect x="30" y="120" width="5" height="5" rx="2.5" fill="white"/>
<rect x="60" y="120" width="5" height="5" rx="2.5" fill="white"/>
<rect x="90" y="120" width="5" height="5" rx="2.5" fill="white"/>
<rect x="120" y="120" width="5" height="5" rx="2.5" fill="white"/>
<rect x="150" y="120" width="5" height="5" rx="2.5" fill="white"/>
<rect x="180" y="120" width="5" height="5" rx="2.5" fill="white"/>
<rect x="210" y="120" width="5" height="5" rx="2.5" fill="white"/>
<rect x="240" y="120" width="5" height="5" rx="2.5" fill="white"/>
<rect x="270" y="120" width="5" height="5" rx="2.5" fill="white"/>
<rect y="150" width="5" height="5" rx="2.5" fill="white"/>
<rect x="30" y="150" width="5" height="5" rx="2.5" fill="white"/>
<rect x="60" y="150" width="5" height="5" rx="2.5" fill="white"/>
<rect x="90" y="150" width="5" height="5" rx="2.5" fill="white"/>
<rect x="120" y="150" width="5" height="5" rx="2.5" fill="white"/>
<rect x="150" y="150" width="5" height="5" rx="2.5" fill="white"/>
<rect x="180" y="150" width="5" height="5" rx="2.5" fill="white"/>
<rect x="210" y="150" width="5" height="5" rx="2.5" fill="white"/>
<rect x="240" y="150" width="5" height="5" rx="2.5" fill="white"/>
<rect x="270" y="150" width="5" height="5" rx="2.5" fill="white"/>
<rect y="180" width="5" height="5" rx="2.5" fill="white"/>
<rect x="30" y="180" width="5" height="5" rx="2.5" fill="white"/>
<rect x="60" y="180" width="5" height="5" rx="2.5" fill="white"/>
<rect x="90" y="180" width="5" height="5" rx="2.5" fill="white"/>
<rect x="120" y="180" width="5" height="5" rx="2.5" fill="white"/>
<rect x="150" y="180" width="5" height="5" rx="2.5" fill="white"/>
<rect x="180" y="180" width="5" height="5" rx="2.5" fill="white"/>
<rect x="210" y="180" width="5" height="5" rx="2.5" fill="white"/>
<rect x="240" y="180" width="5" height="5" rx="2.5" fill="white"/>
<rect x="270" y="180" width="5" height="5" rx="2.5" fill="white"/>
<rect y="210" width="5" height="5" rx="2.5" fill="white"/>
<rect x="30" y="210" width="5" height="5" rx="2.5" fill="white"/>
<rect x="60" y="210" width="5" height="5" rx="2.5" fill="white"/>
<rect x="90" y="210" width="5" height="5" rx="2.5" fill="white"/>
<rect x="120" y="210" width="5" height="5" rx="2.5" fill="white"/>
<rect x="150" y="210" width="5" height="5" rx="2.5" fill="white"/>
<rect x="180" y="210" width="5" height="5" rx="2.5" fill="white"/>
<rect x="210" y="210" width="5" height="5" rx="2.5" fill="white"/>
<rect x="240" y="210" width="5" height="5" rx="2.5" fill="white"/>
<rect x="270" y="210" width="5" height="5" rx="2.5" fill="white"/>
<rect y="240" width="5" height="5" rx="2.5" fill="white"/>
<rect x="30" y="240" width="5" height="5" rx="2.5" fill="white"/>
<rect x="60" y="240" width="5" height="5" rx="2.5" fill="white"/>
<rect x="90" y="240" width="5" height="5" rx="2.5" fill="white"/>
<rect x="120" y="240" width="5" height="5" rx="2.5" fill="white"/>
<rect x="150" y="240" width="5" height="5" rx="2.5" fill="white"/>
<rect x="180" y="240" width="5" height="5" rx="2.5" fill="white"/>
<rect x="210" y="240" width="5" height="5" rx="2.5" fill="white"/>
<rect x="240" y="240" width="5" height="5" rx="2.5" fill="white"/>
<rect x="270" y="240" width="5" height="5" rx="2.5" fill="white"/>
</g>
</svg>
